<?xml version="1.0" standalone="no"?>
<!DOCTYPE svg PUBLIC "-//W3C//DTD SVG 20010904//EN"
 "http://www.w3.org/TR/2001/REC-SVG-20010904/DTD/svg10.dtd">
<svg version="1.0" xmlns="http://www.w3.org/2000/svg"
 width="1200.000000pt" height="800.000000pt" viewBox="0 0 1200.000000 800.000000"
 preserveAspectRatio="xMidYMid meet">

<g transform="translate(0.000000,800.000000) scale(0.100000,-0.100000)"
fill="#000000" stroke="none">
<path d="M3962 7872 c-13 -2 -40 -19 -60 -38 -20 -19 -47 -34 -59 -34 -31 0
-43 -34 -49 -130 -4 -50 -12 -85 -25 -106 -10 -17 -19 -48 -19 -68 0 -32 10
-46 83 -121 77 -79 147 -124 199 -128 9 -1 15 -4 12 -8 -2 -4 0 -18 5 -31 10
-23 10 -23 10 5 1 39 73 148 137 206 105 96 232 140 472 162 124 11 142 15
142 31 0 10 -15 24 -35 34 -19 9 -35 19 -35 23 0 3 -15 12 -32 20 -18 8 -50
22 -70 31 -26 13 -38 14 -42 6 -3 -7 -11 -3 -23 10 -36 42 -129 76 -210 76
-24 0 -43 4 -43 8 0 4 -10 10 -22 13 -13 3 -48 15 -78 26 -44 17 -73 21 -145
19 -49 -1 -100 -4 -113 -6z"/>
<path d="M6826 7690 c12 -5 53 -5 90 -1 l69 8 -90 1 c-60 1 -83 -2 -69 -8z"/>
<path d="M6448 7683 c7 -3 16 -2 19 1 4 3 -2 6 -13 5 -11 0 -14 -3 -6 -6z"/>
<path d="M6303 7673 c9 -2 23 -2 30 0 6 3 -1 5 -18 5 -16 0 -22 -2 -12 -5z"/>
<path d="M6450 7669 c-30 -4 -95 -10 -145 -13 -49 -3 -148 -11 -220 -16 -71
-5 -231 -17 -355 -25 -124 -8 -233 -17 -242 -19 -10 -2 -18 0 -18 5 0 5 26 10
58 10 31 1 47 4 35 6 -22 4 -605 -37 -874 -62 -276 -26 -388 -63 -484 -159
-85 -85 -135 -225 -120 -340 11 -85 45 -284 70 -411 14 -66 41 -214 60 -330
20 -115 40 -229 46 -252 5 -23 25 -133 44 -245 19 -112 42 -239 50 -283 9 -44
37 -206 65 -360 40 -229 113 -608 135 -700 2 -13 19 -26 40 -34 20 -7 57 -32
82 -56 l45 -44 -6 32 c-13 58 -106 569 -147 802 -22 127 -54 302 -70 390 -17
88 -46 249 -65 359 -18 109 -38 215 -43 235 -12 44 -22 99 -56 301 -14 85 -42
240 -61 345 -56 298 -47 394 44 488 81 84 204 120 457 133 136 8 135 8 155
-66 15 -56 74 -115 131 -130 32 -9 76 -8 188 4 80 8 281 27 446 42 165 14 302
29 305 33 3 3 27 7 54 7 39 1 52 6 67 25 10 13 19 31 19 39 0 22 90 49 176 52
62 3 75 7 109 36 22 17 48 32 57 32 10 0 18 5 18 11 0 8 14 10 40 6 36 -5 40
-3 40 17 0 37 23 57 70 62 66 8 147 54 95 54 -18 0 -20 16 -2 24 17 7 -225 3
-293 -5z m-1017 -76 c-13 -2 -35 -2 -50 0 -16 2 -5 4 22 4 28 0 40 -2 28 -4z
m-223 -13 c0 -5 -21 -9 -47 -8 l-48 1 45 7 c25 4 46 8 48 8 1 1 2 -2 2 -8z
m118 3 c-15 -2 -42 -2 -60 0 -18 2 -6 4 27 4 33 0 48 -2 33 -4z m-505 -40 c-7
-2 -21 -2 -30 0 -10 3 -4 5 12 5 17 0 24 -2 18 -5z m-100 -10 c-7 -2 -19 -2
-25 0 -7 3 -2 5 12 5 14 0 19 -2 13 -5z m1386 -8 c46 -23 54 -66 19 -96 -27
-24 -45 -24 -85 1 -38 22 -44 61 -16 92 20 22 44 23 82 3z"/>
<path d="M6173 7663 c9 -2 25 -2 35 0 9 3 1 5 -18 5 -19 0 -27 -2 -17 -5z"/>
<path d="M6028 7653 c12 -2 32 -2 45 0 12 2 2 4 -23 4 -25 0 -35 -2 -22 -4z"/>
<path d="M5878 7643 c18 -2 45 -2 60 0 15 2 0 4 -33 4 -33 0 -45 -2 -27 -4z"/>
<path d="M5748 7633 c17 -2 47 -2 65 0 17 2 3 4 -33 4 -36 0 -50 -2 -32 -4z"/>
<path d="M5618 7623 c18 -2 45 -2 60 0 15 2 0 4 -33 4 -33 0 -45 -2 -27 -4z"/>
<path d="M7370 7534 c0 -5 17 -37 38 -70 42 -64 57 -105 97 -259 21 -82 25
-122 25 -232 0 -82 -4 -133 -10 -133 -5 0 -10 5 -10 12 0 9 -3 9 -11 1 -8 -8
-7 -17 4 -33 11 -15 16 -18 20 -8 3 7 5 -3 6 -22 0 -28 -2 -31 -9 -15 -7 15
-9 16 -9 4 -1 -9 6 -23 15 -30 11 -9 15 -24 11 -50 -3 -21 -1 -41 4 -46 5 -5
14 -38 19 -74 5 -35 14 -84 19 -109 6 -25 15 -72 22 -105 6 -33 19 -69 28 -79
9 -11 10 -16 4 -12 -7 4 -13 2 -13 -3 0 -6 5 -11 11 -11 5 0 7 -4 4 -10 -3 -5
0 -10 7 -10 19 0 41 -55 32 -82 -7 -22 -7 -22 -16 -3 -7 16 -7 15 -2 -5 3 -14
6 -36 6 -49 0 -18 2 -20 9 -10 5 8 6 22 3 33 -4 12 -2 16 5 12 7 -5 9 -1 5 8
-3 9 -3 16 0 16 3 0 26 -42 51 -93 46 -97 70 -178 129 -442 20 -88 40 -178 46
-200 5 -22 19 -80 30 -130 12 -49 34 -146 50 -215 16 -69 48 -208 70 -310 22
-102 52 -232 66 -290 23 -97 57 -246 89 -395 7 -33 24 -112 38 -175 15 -63 29
-126 31 -140 2 -14 13 -63 24 -110 11 -47 27 -119 36 -160 9 -41 28 -124 42
-185 13 -60 39 -173 56 -250 38 -167 42 -230 15 -230 -28 0 -31 -80 -6 -184
11 -47 27 -113 35 -147 8 -33 14 -70 14 -82 0 -11 5 -24 12 -28 8 -5 9 0 5 15
-6 24 10 71 25 71 4 0 8 15 9 33 0 28 1 29 9 10 5 -11 11 -34 13 -50 2 -15 7
-35 10 -43 12 -27 26 -104 21 -112 -3 -4 -16 -3 -29 2 -21 8 -25 6 -25 -8 -1
-13 -4 -11 -15 8 -8 14 -14 21 -15 15 0 -15 27 -140 53 -245 13 -52 34 -144
47 -205 12 -60 33 -154 47 -208 57 -233 63 -325 29 -409 -28 -68 -29 -77 -6
-71 14 4 20 1 20 -10 0 -8 6 -17 13 -20 9 -3 7 -13 -7 -40 -16 -31 -21 -34
-37 -24 -10 6 -15 15 -13 19 3 4 -2 8 -10 8 -9 0 -16 5 -16 12 0 6 -9 3 -20
-7 -11 -10 -20 -24 -20 -32 0 -8 -4 -12 -9 -9 -5 3 -36 -8 -69 -24 -34 -17
-68 -30 -77 -30 -9 0 -24 -4 -34 -9 -9 -6 -59 -17 -109 -26 -96 -16 -132 -11
-132 20 0 8 -11 17 -25 21 -14 3 -25 12 -25 20 0 25 -16 15 -28 -19 -20 -55
-16 -77 13 -77 27 0 28 -2 28 -84 -1 -27 3 -43 7 -36 6 9 10 6 15 -9 3 -11 12
-21 18 -21 7 0 19 -9 27 -20 8 -11 21 -20 28 -20 12 0 12 -3 2 -15 -10 -12 -9
-20 4 -40 9 -14 23 -25 31 -25 10 0 15 -10 15 -30 0 -16 8 -44 19 -62 10 -18
21 -54 25 -80 4 -26 18 -61 31 -80 13 -18 40 -55 59 -83 19 -27 51 -68 73 -91
38 -41 39 -41 143 -52 288 -33 318 -33 495 -16 139 14 225 15 473 10 300 -7
434 -20 520 -50 49 -18 244 -114 252 -124 3 -4 17 -15 32 -25 25 -16 86 -17
813 -17 l785 0 0 573 c0 615 -1 620 -50 622 -58 3 -70 6 -70 18 0 18 -29 43
-60 52 -14 4 -49 32 -79 61 -32 33 -63 54 -76 54 -26 0 -78 25 -95 45 -7 8
-34 27 -61 42 -27 14 -49 30 -49 36 0 5 -7 6 -16 3 -10 -4 -18 0 -21 13 -5 21
-50 44 -74 39 -10 -2 -15 10 -17 45 -2 37 0 47 12 47 9 0 16 -7 16 -15 0 -8 7
-15 16 -15 9 0 23 -8 31 -18 14 -16 14 -16 9 0 -7 22 13 35 25 17 5 -8 9 -27
9 -44 1 -27 2 -28 14 -13 16 22 45 23 52 4 3 -8 12 -12 19 -10 7 3 16 1 20 -5
3 -6 21 -11 40 -11 21 0 37 -6 43 -17 9 -14 13 -15 42 -3 27 11 34 11 41 -1 5
-8 12 -20 17 -28 13 -18 101 -34 118 -20 8 7 14 7 19 -1 11 -17 40 -11 62 14
21 23 21 24 2 29 -14 4 -19 14 -19 41 0 26 -5 38 -17 42 -46 14 -106 61 -119
93 -12 29 -22 34 -66 34 -12 0 -18 7 -18 23 0 19 -5 23 -29 22 -27 -1 -86 34
-75 44 2 3 -2 18 -11 34 -13 25 -15 26 -15 8 0 -22 -17 -34 -47 -34 -13 0 -14
8 -10 43 4 24 3 34 -2 23 -7 -18 -8 -18 -14 -3 -3 9 -13 17 -22 17 -8 0 -15 9
-15 20 0 23 -10 26 -28 8 -10 -10 -17 -10 -32 0 -11 6 -27 12 -35 12 -9 0 -18
12 -21 30 -4 17 -13 30 -20 30 -8 0 -14 5 -14 10 0 6 7 10 16 10 8 0 12 4 9
10 -10 17 18 45 50 48 16 2 34 11 41 20 8 11 13 12 18 4 4 -7 5 -16 2 -21 -3
-5 6 -11 20 -14 16 -3 28 1 31 9 8 22 20 16 31 -13 10 -27 10 -27 11 11 1 31
4 37 18 32 9 -4 32 -9 52 -12 20 -3 41 -9 46 -12 6 -4 19 -5 30 -4 17 2 17 1
5 -8 -10 -6 -11 -13 -5 -18 6 -4 12 -20 13 -37 1 -16 7 -31 12 -33 14 -5 12
-28 -4 -41 -10 -9 -15 -8 -20 4 -6 17 -24 19 -45 6 -12 -8 -13 -14 -3 -35 11
-24 15 -26 54 -20 40 7 42 6 29 -10 -10 -12 -23 -16 -40 -12 -25 5 -25 5 -3
-6 12 -6 22 -15 22 -20 0 -4 9 -8 19 -8 14 0 21 -8 23 -27 3 -25 7 -28 36 -27
24 2 32 -2 32 -16 0 -19 88 -70 120 -70 22 0 35 -17 18 -22 -8 -3 -8 -9 0 -24
6 -10 12 -13 12 -6 0 6 9 12 21 12 19 0 20 4 16 63 -7 80 -17 127 -28 127 -5
0 -9 -4 -9 -10 0 -5 -4 -10 -10 -10 -5 0 -10 7 -10 15 0 8 4 15 9 15 5 0 17 8
27 17 15 16 15 17 -2 24 -17 7 -17 8 4 8 12 1 22 5 22 10 0 5 -10 12 -22 14
-23 4 -23 4 -1 6 21 1 21 5 20 108 -2 104 -10 133 -36 133 -6 0 -11 -4 -11
-10 0 -5 -11 -10 -25 -10 -29 0 -32 7 -7 27 16 14 16 14 -3 8 -49 -17 -55 -17
-55 0 0 12 -6 16 -19 12 -13 -3 -23 3 -32 20 -8 16 -19 23 -31 20 -9 -3 -22 1
-29 9 -6 8 -19 14 -28 14 -9 0 -22 5 -29 12 -9 9 -12 8 -13 -7 -1 -12 -4 -8
-8 10 -5 24 -11 29 -30 27 -19 -3 -22 0 -16 18 6 18 4 20 -18 15 -14 -4 -28
-2 -31 4 -4 5 -14 7 -23 4 -13 -5 -15 -2 -10 11 6 14 3 17 -9 12 -9 -4 -23 -1
-30 5 -8 6 -20 9 -28 6 -8 -3 -22 1 -33 8 -17 13 -16 14 10 15 15 0 27 5 27
10 0 6 -12 10 -26 10 -17 0 -23 4 -18 12 5 8 2 9 -9 5 -10 -4 -23 -10 -31 -13
-10 -4 -12 1 -9 20 3 16 1 26 -6 26 -6 0 -11 -9 -11 -21 0 -11 -4 -17 -10 -14
-6 4 -8 16 -4 27 5 17 3 19 -15 13 -15 -4 -21 -2 -21 8 0 8 -9 17 -20 20 -14
4 -18 10 -14 22 6 14 3 16 -15 10 -12 -4 -36 -1 -52 5 -24 10 -28 16 -22 38 4
17 2 23 -6 18 -6 -4 -11 -2 -11 4 0 6 -8 9 -17 6 -23 -7 -40 4 -44 29 -2 11
-14 24 -27 30 -12 5 -22 13 -22 17 0 5 -7 8 -15 8 -9 0 -14 8 -12 21 1 16 -9
26 -40 42 -28 15 -43 29 -43 42 0 16 -2 17 -10 5 -7 -12 -12 -10 -30 10 -18
20 -23 22 -30 10 -10 -16 -13 -8 -10 28 1 12 -3 22 -9 22 -6 0 -11 -6 -11 -14
0 -8 -5 -18 -10 -21 -7 -4 -9 3 -5 22 3 15 2 22 -1 16 -10 -22 -24 -14 -24 13
0 23 -3 25 -25 20 -24 -6 -25 -4 -26 36 -1 24 -3 35 -6 26 -7 -28 -20 -21 -28
15 -7 32 -7 32 -15 7 -8 -24 -8 -24 -9 -2 -1 12 -5 22 -10 22 -5 0 -12 16 -16
36 -3 20 -17 48 -30 62 -14 15 -32 48 -42 74 -11 32 -23 48 -34 48 -11 0 -17
7 -16 18 0 10 -10 32 -23 50 l-24 32 -15 -32 c-12 -25 -17 -28 -19 -15 -2 10
4 29 13 43 22 34 12 78 -15 71 -26 -7 -35 9 -14 21 20 11 10 32 -16 32 -21 0
-45 34 -35 50 3 6 0 10 -9 10 -8 0 -16 -4 -18 -9 -1 -4 -13 -12 -26 -16 -22
-6 -23 -5 -21 32 3 44 -5 63 -28 63 -9 0 -22 8 -30 18 -10 12 -16 14 -19 5 -3
-7 -15 -13 -27 -14 -12 0 -16 -3 -9 -6 21 -8 13 -57 -16 -89 -23 -28 -32 -31
-62 -26 -31 4 -34 3 -22 -11 8 -9 34 -19 59 -23 42 -6 45 -8 40 -33 -2 -14 -8
-34 -12 -43 -4 -11 -3 -18 4 -18 7 0 18 15 26 34 17 40 26 48 43 37 10 -6 9
-11 -3 -21 -8 -7 -15 -27 -15 -46 0 -18 -5 -36 -10 -39 -18 -11 -180 18 -180
32 0 15 -16 17 -25 3 -3 -6 -18 -10 -33 -10 -19 0 -23 -3 -15 -11 7 -7 42 -13
80 -16 75 -4 139 -19 148 -32 3 -5 -8 -23 -25 -39 -21 -22 -32 -44 -36 -76
l-7 -44 -49 -7 c-56 -8 -65 -3 -70 40 -2 17 -6 29 -11 27 -4 -1 -23 4 -42 13
-32 13 -37 13 -42 0 -3 -9 -19 -15 -39 -15 -19 0 -51 -7 -71 -15 -46 -19 -117
-20 -133 0 -17 20 21 71 67 90 44 18 38 27 -19 29 -34 1 -45 6 -55 26 -18 37
-42 51 -64 39 -16 -8 -19 -6 -19 14 0 13 9 32 20 42 31 28 24 35 -30 35 -28 0
-50 -5 -50 -11 0 -5 -20 -19 -45 -30 -25 -11 -45 -23 -45 -27 0 -4 -12 -9 -26
-10 -15 -1 -32 -8 -38 -15 -16 -19 -146 -11 -146 9 0 8 -13 17 -30 21 -17 3
-36 13 -43 23 -22 30 -56 31 -88 3 -16 -15 -29 -35 -29 -45 0 -17 -18 -24 -50
-19 -65 11 -157 18 -165 13 -30 -18 -145 -18 -157 1 -6 9 -8 8 -8 -3 0 -13 -1
-13 -10 0 -8 13 -10 12 -10 -2 0 -10 -7 -18 -15 -18 -8 0 -15 7 -15 15 0 8 5
15 10 15 6 0 10 7 10 15 0 8 -4 15 -10 15 -5 0 -10 8 -10 18 0 9 -9 23 -21 30
-15 10 -19 20 -15 38 5 17 2 24 -9 24 -8 0 -15 9 -15 20 0 11 -12 27 -27 37
-60 38 -81 87 -94 218 -6 55 -14 125 -19 155 -5 30 -13 79 -18 108 -8 52 -37
92 -65 92 -10 0 -17 17 -21 51 -5 38 -12 52 -25 56 -24 6 -38 39 -47 102 -8
65 0 89 23 70 15 -13 15 -12 5 8 -7 12 -12 42 -12 67 0 39 4 46 28 58 20 10
36 12 55 5 38 -12 59 6 46 39 -5 14 -9 33 -9 43 0 22 41 36 52 18 6 -9 10 -8
17 3 8 12 12 10 19 -9 6 -16 11 -20 16 -13 4 7 13 9 19 5 6 -4 33 -8 60 -10
38 -2 49 1 54 15 10 26 23 32 76 32 26 0 64 7 85 16 20 10 45 16 55 15 27 -4
103 49 87 59 -7 5 -24 4 -37 -1 -16 -6 -36 -3 -68 11 -44 19 -46 19 -132 0
-59 -13 -91 -16 -99 -9 -8 7 -14 6 -19 -1 -12 -20 -54 -31 -74 -19 -17 11 -16
13 6 37 16 17 23 36 22 57 -3 50 0 65 16 65 9 0 15 9 15 25 0 14 5 25 10 25 6
0 10 -11 10 -24 0 -31 49 -42 90 -21 16 8 36 15 45 15 8 0 15 7 15 15 0 8 4
15 9 15 5 0 12 11 15 25 4 14 20 32 39 41 43 22 43 21 23 43 -16 17 -15 19 9
35 27 18 34 46 10 46 -8 0 -15 -6 -15 -14 0 -16 -68 -71 -77 -62 -3 3 0 36 7
73 6 38 13 79 14 93 2 44 42 56 52 16 3 -15 15 -26 30 -29 28 -5 34 0 34 25 0
10 5 18 10 18 6 0 10 -9 10 -20 0 -24 6 -25 27 -4 14 13 14 17 2 25 -8 5 -21
9 -30 9 -17 0 -79 63 -79 79 0 5 -6 9 -12 8 -36 -1 -48 6 -62 35 -9 17 -16 41
-16 52 0 12 -10 28 -21 36 -12 8 -31 36 -43 61 -12 26 -30 55 -40 64 -10 10
-15 26 -13 36 3 11 2 19 -3 19 -4 0 -11 16 -14 34 -4 20 -20 48 -36 63 -18 16
-30 38 -30 53 0 14 -4 20 -8 14 -14 -22 -48 -34 -61 -21 -9 9 -14 9 -19 -1 -5
-7 -13 19 -21 62 -9 57 -16 75 -30 79 -16 4 -19 16 -20 85 -1 65 2 80 12 76 8
-3 19 -22 26 -43 10 -35 36 -56 64 -52 4 1 10 -12 14 -29 3 -17 10 -33 14 -36
5 -3 9 -14 9 -25 0 -10 6 -19 14 -19 8 0 18 -9 21 -20 8 -24 40 -27 49 -4 4 9
1 23 -5 31 -16 18 -3 29 16 13 32 -27 13 10 -27 51 -34 35 -39 44 -25 47 9 2
17 10 17 17 0 9 6 12 15 9 8 -4 15 -1 15 5 0 6 5 11 10 11 6 0 10 -6 10 -14 0
-7 6 -19 14 -25 11 -9 12 -6 8 14 -2 14 -8 25 -13 25 -5 0 -9 7 -9 15 0 18
-16 20 -23 3 -3 -7 -4 6 -2 28 1 23 5 46 9 52 6 9 37 5 96 -13 l25 -7 -20 21
c-14 14 -36 21 -75 24 -42 2 -56 7 -58 20 -4 22 39 33 68 17 12 -6 34 -14 48
-16 l27 -4 -30 17 c-30 17 -30 17 -7 22 l24 6 -21 19 c-12 11 -21 26 -21 35 0
13 -2 13 -9 2 -5 -7 -14 -10 -20 -6 -9 5 -8 10 4 19 15 11 15 13 1 25 -8 7
-20 28 -26 47 -9 26 -17 34 -36 34 -31 0 -30 -9 4 -37 l27 -22 -27 -1 c-35 0
-28 -25 9 -35 14 -3 23 -8 20 -12 -3 -3 -20 2 -38 11 -51 25 -90 20 -97 -14
-9 -38 -37 -50 -56 -24 -6 8 -26 16 -44 16 -28 1 -32 4 -32 28 0 15 -7 33 -15
40 -13 11 -18 10 -31 -8 -12 -17 -25 -22 -60 -22 -26 0 -44 -5 -44 -11 0 -16
-133 -3 -170 16 -16 8 -36 15 -45 15 -8 0 -15 8 -15 18 0 10 -3 13 -8 6 -4 -6
-31 -10 -64 -8 -36 1 -58 -2 -61 -9 -2 -7 -2 -2 0 11 2 12 -1 22 -7 22 -5 0
-10 9 -10 19 0 19 -26 34 -50 29 -15 -3 -80 99 -80 125 0 9 -4 17 -9 17 -9 0
-19 30 -56 160 -9 30 -20 129 -26 220 -11 169 -19 212 -41 208 -7 -2 -14 7
-16 20 -2 12 -8 20 -13 17 -5 -3 -6 1 -3 9 3 8 -1 30 -9 48 -8 18 -23 56 -33
83 -29 80 -113 212 -114 179z m1159 -1236 c-1 -7 -4 -22 -7 -33 -7 -20 -8 -20
-24 -3 -16 16 -16 19 -2 33 19 18 34 20 33 3z m-199 -19 c0 -5 -4 -9 -10 -9
-5 0 -10 7 -10 16 0 8 5 12 10 9 6 -3 10 -10 10 -16z m230 -69 c0 -5 -4 -10
-10 -10 -5 0 -10 5 -10 10 0 6 5 10 10 10 6 0 10 -4 10 -10z m10 -55 c0 -8 -4
-15 -10 -15 -5 0 -10 7 -10 15 0 8 5 15 10 15 6 0 10 -7 10 -15z m-90 -35 c0
-5 -4 -10 -10 -10 -5 0 -10 5 -10 10 0 6 5 10 10 10 6 0 10 -4 10 -10z m70
-50 c0 -5 -4 -10 -10 -10 -5 0 -10 5 -10 10 0 6 5 10 10 10 6 0 10 -4 10 -10z
m-669 -291 c3 9 27 -25 56 -80 28 -52 82 -151 121 -221 171 -310 224 -449 238
-618 6 -74 14 -94 28 -71 3 5 7 25 8 45 2 20 7 36 12 36 5 0 28 -16 52 -35 23
-19 47 -35 52 -35 18 0 21 -84 4 -97 -8 -7 -27 -23 -42 -37 -16 -13 -32 -21
-39 -16 -7 4 -23 5 -37 2 -25 -4 -29 5 -24 51 1 17 -1 16 -20 -3 -17 -17 -19
-24 -10 -35 9 -11 4 -19 -24 -37 -20 -13 -42 -35 -48 -50 -7 -15 -15 -25 -19
-22 -4 2 -10 -5 -14 -16 -11 -35 -22 -22 -35 43 -7 34 -16 69 -20 77 -7 13
-86 351 -140 595 -11 50 -42 189 -69 310 -48 214 -76 363 -47 250 7 -27 15
-44 17 -36z m789 -529 c0 -5 -4 -10 -10 -10 -5 0 -10 5 -10 10 0 6 5 10 10 10
6 0 10 -4 10 -10z m10 -55 c0 -14 11 -47 25 -73 24 -46 20 -67 -9 -42 -16 12
-20 7 -30 -32 -11 -48 -26 -31 -26 30 0 32 -7 70 -15 86 -20 39 -13 56 25 56
25 0 30 -4 30 -25z m55 -15 c3 -5 1 -10 -4 -10 -6 0 -11 5 -11 10 0 6 2 10 4
10 3 0 8 -4 11 -10z m-5 -145 c0 -8 -4 -15 -9 -15 -13 0 -22 16 -14 24 11 11
23 6 23 -9z m-5 -316 c0 -8 -10 -15 -22 -17 -25 -4 -30 7 -11 26 15 15 33 10
33 -9z m-460 -626 c78 -356 115 -539 114 -561 -3 -46 -189 765 -189 824 0 21
2 35 5 32 3 -3 34 -136 70 -295z m2036 -593 c22 0 25 -13 5 -29 -13 -11 -76
-5 -76 8 0 4 10 18 22 31 20 21 23 22 26 7 2 -9 12 -17 23 -17z m129 -62 c0
-7 -5 -20 -10 -28 -8 -11 -9 -9 -8 13 2 26 18 40 18 15z m-43 -14 c-3 -3 -12
-4 -19 -1 -8 3 -5 6 6 6 11 1 17 -2 13 -5z m-1237 -24 c0 -5 -12 -10 -27 -10
-22 0 -25 2 -13 10 20 13 40 13 40 0z m1171 -17 c-8 -15 -10 -15 -11 -2 0 17
10 32 18 25 2 -3 -1 -13 -7 -23z m133 -47 c-3 -9 -16 -16 -28 -15 -21 0 -21 0
2 11 12 6 22 16 22 21 0 6 2 8 5 5 3 -3 3 -13 -1 -22z m-158 -13 c-10 -10 -19
5 -10 18 6 11 8 11 12 0 2 -7 1 -15 -2 -18z m-666 -3 c0 -5 -12 -10 -27 -9
l-28 1 25 8 c14 4 26 8 28 9 1 1 2 -3 2 -9z m807 -72 c-3 -8 -6 -5 -6 6 -1 11
2 17 5 13 3 -3 4 -12 1 -19z m-92 3 c7 -12 -12 -24 -25 -16 -11 7 -4 25 10 25
5 0 11 -4 15 -9z m-75 -38 c0 -5 -7 -17 -15 -27 -15 -20 -20 -10 -9 18 6 16
24 22 24 9z m-1752 -298 c0 -16 -2 -15 -8 5 -4 14 -8 34 -8 45 0 16 2 15 8 -5
4 -14 8 -34 8 -45z m100 -395 c245 -1042 257 -1101 247 -1211 -17 -195 -115
-341 -275 -408 -30 -13 -63 -27 -72 -32 -24 -12 -48 -11 -48 1 0 6 8 10 17 10
58 0 240 131 277 199 73 134 90 240 62 396 -14 78 -120 555 -192 865 -61 266
-114 516 -114 539 1 43 23 -37 98 -359z m2516 -265 c-4 -15 -2 -25 5 -25 14 0
15 -77 1 -85 -6 -4 -10 8 -10 30 0 22 -4 34 -10 30 -15 -9 -12 43 3 60 17 20
18 19 11 -10z m-514 -85 c0 -5 -5 -10 -11 -10 -5 0 -7 5 -4 10 3 6 8 10 11 10
2 0 4 -4 4 -10z m1250 -15 c0 -8 -4 -15 -10 -15 -5 0 -10 7 -10 15 0 8 5 15
10 15 6 0 10 -7 10 -15z m-293 -11 c-3 -3 -12 -4 -19 -1 -8 3 -5 6 6 6 11 1
17 -2 13 -5z m-273 -67 c18 -13 18 -14 0 -35 -23 -27 -37 -28 -29 -2 5 16 2
20 -14 20 -21 0 -27 11 -14 23 10 11 38 8 57 -6z m522 -82 c19 -54 18 -68 -6
-83 -12 -7 -20 -8 -20 -2 0 5 5 10 10 10 17 0 11 28 -6 32 -12 2 -17 16 -18
46 -3 55 20 54 40 -3z m-69 -87 c-3 -8 -6 -5 -6 6 -1 11 2 17 5 13 3 -3 4 -12
1 -19z m143 12 c0 -5 -5 -10 -11 -10 -6 0 -8 -9 -4 -20 5 -15 2 -20 -10 -20
-12 0 -15 5 -11 16 3 9 6 22 6 30 0 8 7 14 15 14 8 0 15 -4 15 -10z m-2233
-36 c-3 -3 -12 -4 -19 -1 -8 3 -5 6 6 6 11 1 17 -2 13 -5z m-39 -48 c17 -1 25
-8 29 -26 3 -16 16 -31 35 -39 17 -8 33 -22 35 -32 3 -11 12 -19 19 -19 8 0
14 -4 14 -10 0 -5 7 -10 15 -10 8 0 15 -7 15 -15 0 -25 23 -65 37 -65 7 0 13
-4 13 -10 0 -5 -9 -10 -19 -10 -18 0 -37 -27 -26 -38 3 -3 5 0 5 6 0 20 27 13
33 -8 3 -12 14 -20 26 -20 12 0 24 0 29 -1 11 0 25 -40 27 -77 1 -27 -3 -36
-26 -48 -16 -8 -33 -23 -39 -34 -10 -19 -59 -50 -80 -50 -5 0 -10 7 -10 15 0
8 5 15 10 15 6 0 10 25 10 55 l0 55 -32 0 c-40 0 -51 -7 -71 -45 -9 -16 -16
-24 -17 -17 0 8 -6 6 -18 -5 -14 -14 -15 -21 -6 -30 15 -15 44 -17 44 -3 0 6
7 10 15 10 8 0 15 -8 15 -19 0 -17 -24 -31 -60 -35 -8 0 -16 -13 -18 -27 -3
-23 -9 -27 -55 -34 -95 -14 -137 -2 -137 38 0 17 -44 25 -127 23 -29 -1 -53 2
-53 6 0 5 -9 8 -20 8 -11 0 -20 6 -20 14 0 11 -15 14 -62 14 -41 0 -79 7 -109
20 -41 18 -47 24 -52 59 -24 145 14 233 101 233 21 0 24 4 19 25 -5 28 23 51
48 41 8 -3 15 -1 17 4 2 5 21 -1 43 -11 52 -27 84 -30 118 -12 24 12 28 12 33
-2 3 -8 12 -15 19 -15 7 0 24 -9 39 -21 20 -16 27 -18 31 -7 9 24 -23 88 -44
88 -10 0 -36 8 -57 17 -39 17 -39 17 -11 21 16 2 35 -2 42 -8 19 -16 65 -4 65
15 0 8 9 15 19 15 11 0 23 5 27 11 4 8 22 9 53 4 25 -4 56 -8 69 -9z m2278 -8
c-13 -22 -22 -23 -29 -4 -3 8 -16 16 -29 19 -13 2 -2 3 23 3 41 -1 45 -3 35
-18z m-782 -52 c-3 -9 -10 -16 -15 -16 -6 0 -5 9 1 21 13 24 24 20 14 -5z
m-64 -5 c0 -6 -4 -13 -10 -16 -5 -3 -10 1 -10 9 0 9 5 16 10 16 6 0 10 -4 10
-9z m183 -78 c-11 -33 -16 -37 -23 -17 -6 17 0 25 27 33 1 1 0 -7 -4 -16z m55
-11 c2 -7 -3 -12 -12 -12 -9 0 -16 -8 -16 -21 0 -11 -4 -17 -10 -14 -14 9 -13
38 2 53 14 14 30 11 36 -6z m12 -54 c-1 -26 -3 -30 -10 -16 -6 9 -7 23 -4 32
9 25 14 19 14 -16z m-2603 -400 c-3 -8 -6 -5 -6 6 -1 11 2 17 5 13 3 -3 4 -12
1 -19z"/>
<path d="M7880 5751 c0 -6 4 -13 10 -16 6 -3 7 1 4 9 -7 18 -14 21 -14 7z"/>
<path d="M8180 4642 c-16 -5 -30 -21 -30 -34 0 -13 48 -9 62 5 7 7 22 18 33
25 20 11 20 11 -2 12 -12 0 -24 -6 -26 -12 -4 -9 -8 -10 -14 -2 -4 6 -15 9
-23 6z"/>
<path d="M7020 7228 c0 -8 7 -23 15 -34 15 -18 15 -18 13 10 -3 29 -28 50 -28
24z"/>
<path d="M6973 7213 c-15 -6 -18 -43 -3 -43 5 0 7 7 4 15 -8 21 13 19 25 -2
11 -20 15 -4 5 21 -6 17 -11 18 -31 9z"/>
<path d="M4548 7200 c-87 -8 -124 -27 -134 -66 -9 -34 25 -221 44 -252 29 -45
62 -53 163 -42 50 6 100 15 111 21 42 23 45 72 12 225 -24 113 -52 129 -196
114z m147 -54 c8 -11 22 -67 32 -124 17 -100 17 -103 -2 -121 -16 -16 -41 -21
-116 -27 -90 -6 -97 -5 -116 15 -19 20 -53 161 -53 218 0 36 31 51 120 60 100
10 117 8 135 -21z"/>
<path d="M4535 7003 c10 -57 15 -73 26 -73 5 0 9 7 9 15 0 20 9 19 32 -2 18
-16 19 -15 13 28 -10 67 -12 69 -50 69 l-36 0 6 -37z m55 2 c0 -8 -7 -15 -15
-15 -8 0 -15 7 -15 15 0 8 7 15 15 15 8 0 15 -7 15 -15z"/>
<path d="M4653 7013 c-30 -11 -10 -73 23 -73 28 0 32 17 7 23 -15 3 -14 6 6
14 22 9 22 10 6 26 -17 18 -22 19 -42 10z m27 -17 c0 -3 -4 -8 -10 -11 -5 -3
-10 -1 -10 4 0 6 5 11 10 11 6 0 10 -2 10 -4z"/>
<path d="M6647 7196 c-11 -27 -9 -74 2 -57 5 8 18 12 30 8 27 -7 26 1 -2 37
-21 25 -25 27 -30 12z"/>
<path d="M6893 7190 c3 -33 47 -43 47 -11 0 12 -4 21 -10 21 -5 0 -7 -7 -4
-15 10 -24 -16 -17 -26 8 -10 22 -10 22 -7 -3z"/>
<path d="M6777 7193 c-12 -12 -7 -41 8 -47 8 -3 15 -1 15 3 0 5 -6 11 -12 14
-10 3 -10 7 1 20 13 16 2 25 -12 10z"/>
<path d="M6827 7193 c-9 -14 18 -47 31 -39 14 9 16 33 3 40 -5 4 -7 -3 -4 -14
7 -27 -6 -26 -16 2 -4 12 -11 17 -14 11z"/>
<path d="M6484 7165 c10 -40 26 -56 22 -21 -1 15 -9 32 -16 39 -10 10 -11 6
-6 -18z"/>
<path d="M6714 7175 c-8 -19 3 -35 24 -35 15 1 15 2 -1 11 -14 8 -16 14 -6 25
8 10 9 14 0 14 -6 0 -14 -7 -17 -15z"/>
<path d="M8117 7160 c13 -55 73 -192 96 -220 22 -25 27 -27 38 -14 7 8 18 13
25 10 7 -3 16 -1 19 4 4 6 23 10 43 10 20 0 50 7 66 15 15 8 34 15 40 15 6 0
18 9 26 20 8 11 20 20 27 20 6 0 15 9 18 20 3 11 11 20 16 20 5 0 9 5 9 11 0
19 -28 39 -63 43 -19 3 -52 12 -73 22 -58 25 -109 35 -206 43 l-87 6 6 -25z"/>
<path d="M6227 7173 c-28 -27 17 -93 50 -74 16 9 15 10 -9 11 -35 0 -49 37
-22 57 14 10 15 13 3 13 -9 0 -19 -3 -22 -7z"/>
<path d="M6542 7168 c-17 -17 -15 -35 4 -42 24 -9 28 -7 15 8 -9 11 -9 15 1
19 9 3 10 8 3 16 -8 8 -14 8 -23 -1z"/>
<path d="M6354 7146 c-9 -22 2 -46 21 -46 13 0 14 4 4 21 -8 17 -8 20 1 14 8
-5 11 -3 8 5 -7 21 -27 24 -34 6z"/>
<path d="M6417 7153 c-13 -13 -7 -32 13 -38 27 -9 39 1 33 25 -5 19 -33 27
-46 13z m33 -18 c0 -8 -4 -15 -10 -15 -5 0 -10 7 -10 15 0 8 5 15 10 15 6 0
10 -7 10 -15z"/>
<path d="M6300 7136 c0 -24 17 -28 23 -6 3 13 0 20 -9 20 -8 0 -14 -6 -14 -14z"/>
<path d="M4042 7090 c0 -19 2 -27 5 -17 2 9 2 25 0 35 -3 9 -5 1 -5 -18z"/>
<path d="M4032 6982 c-9 -48 -7 -80 8 -168 30 -175 99 -563 115 -639 8 -38 21
-115 30 -170 9 -55 27 -156 40 -225 13 -69 26 -141 29 -160 3 -19 12 -75 21
-124 9 -48 14 -91 11 -93 -3 -3 1 -20 9 -38 25 -61 19 -170 -11 -182 -7 -2
-16 -19 -20 -36 -7 -37 -31 -67 -51 -67 -7 0 -30 7 -51 17 -20 9 -41 15 -45
14 -4 -1 -13 12 -18 29 -14 39 -46 45 -211 36 -133 -8 -184 0 -221 32 -25 22
-41 2 -38 -49 2 -37 74 -226 90 -239 4 -3 18 -21 30 -40 32 -47 143 -160 157
-160 7 0 14 -7 17 -15 7 -18 94 -68 167 -96 120 -47 367 -131 399 -136 31 -5
33 -4 28 18 -3 13 -10 53 -16 89 -7 36 -27 144 -45 240 -19 96 -40 208 -47
249 -7 41 -14 70 -16 64 -2 -6 10 -91 27 -188 28 -157 31 -199 15 -184 -11 12
-61 375 -52 386 6 9 3 47 -8 110 -17 97 -34 150 -35 108 0 -17 -2 -17 -15 -5
-12 13 -26 76 -65 295 -5 28 -12 65 -16 84 -7 31 -5 34 14 29 12 -4 22 -1 22
4 0 10 -53 313 -85 483 -13 67 -105 587 -127 710 -6 33 -14 64 -18 68 -4 5
-12 -18 -18 -51z m158 -784 c0 -2 8 -42 18 -91 10 -48 15 -92 11 -99 -8 -13
-10 -5 -29 97 -6 33 -14 68 -16 78 -3 9 -1 17 5 17 6 0 11 -1 11 -2z"/>
<path d="M8545 6450 c4 -6 11 -8 16 -5 14 9 11 15 -7 15 -8 0 -12 -5 -9 -10z"/>
<path d="M7641 6204 c0 -11 3 -14 6 -6 3 7 2 16 -1 19 -3 4 -6 -2 -5 -13z"/>
<path d="M6310 6190 c-6 -10 -13 -40 -16 -65 -4 -25 -10 -45 -14 -45 -4 0 -24
25 -44 55 -28 43 -42 55 -62 55 -33 0 -30 -9 40 -103 37 -50 58 -89 62 -116 5
-34 10 -41 30 -41 21 0 22 3 17 53 -3 36 2 75 16 127 12 41 21 80 21 87 0 20
-38 15 -50 -7z"/>
<path d="M5963 6137 c4 -30 10 -63 13 -72 6 -14 2 -15 -28 -10 -49 9 -82 -19
-81 -69 2 -66 59 -120 103 -96 10 5 32 10 49 10 19 0 31 5 30 13 0 6 -12 70
-27 142 -22 107 -30 130 -46 133 -17 4 -18 -1 -13 -51z m24 -146 c15 -32 0
-61 -32 -61 -30 0 -49 32 -41 67 5 19 12 24 34 21 16 -2 31 -12 39 -27z"/>
<path d="M5748 6163 c-3 -4 7 -69 22 -143 23 -122 28 -135 48 -138 27 -4 27
-7 -6 153 -21 98 -31 131 -44 133 -9 2 -18 -1 -20 -5z"/>
<path d="M6840 6135 c-10 -12 -16 -12 -26 -4 -8 6 -20 9 -28 6 -11 -5 -11 -17
4 -79 14 -58 21 -73 36 -73 16 0 18 7 15 51 -2 36 2 54 13 63 17 14 22 51 7
51 -5 0 -14 -7 -21 -15z"/>
<path d="M6684 6068 c1 -56 -1 -63 -18 -63 -19 0 -21 4 -40 88 -4 18 -13 27
-26 27 -23 0 -24 -7 -10 -70 16 -70 29 -90 61 -90 15 0 31 5 34 11 4 6 19 7
36 4 33 -7 36 3 20 65 -5 19 -12 47 -15 63 -4 17 -13 27 -25 27 -16 0 -18 -8
-17 -62z"/>
<path d="M8799 6101 c8 -14 8 -21 1 -21 -17 0 -11 -17 8 -24 9 -3 23 -9 30
-12 7 -3 3 10 -9 30 -23 39 -48 62 -30 27z"/>
<path d="M5666 6101 c-7 -11 3 -41 13 -41 14 0 29 23 24 36 -6 16 -29 19 -37
5z"/>
<path d="M6409 6089 c-17 -17 -20 -29 -16 -63 10 -72 80 -109 135 -70 32 22
31 96 -3 129 -31 32 -86 34 -116 4z m89 -31 c28 -28 2 -88 -33 -74 -19 7 -36
51 -29 71 7 18 45 20 62 3z"/>
<path d="M5254 6092 c-13 -8 28 -248 45 -265 5 -5 30 -6 57 -2 86 13 115 73
63 130 -14 15 -17 30 -13 55 4 27 1 42 -16 63 -18 23 -29 27 -73 27 -29 0 -57
-4 -63 -8z m101 -72 c0 -20 -5 -25 -25 -25 -20 0 -26 6 -28 28 -3 26 -1 28 25
25 22 -2 28 -8 28 -28z m39 -102 c12 -20 3 -32 -31 -42 -16 -5 -25 -1 -33 14
-6 12 -9 28 -6 36 8 20 56 14 70 -8z"/>
<path d="M5677 6023 c-5 -8 15 -119 27 -149 9 -23 36 -17 36 9 -2 55 -26 142
-42 145 -9 2 -18 -1 -21 -5z"/>
<path d="M5593 6013 c-9 -3 -11 -20 -7 -57 5 -40 3 -55 -9 -65 -24 -19 -34 -7
-48 54 -10 44 -16 55 -32 55 -18 0 -19 -5 -14 -45 4 -24 13 -60 21 -80 13 -29
20 -35 46 -35 18 0 33 6 36 15 5 11 10 12 26 4 33 -18 40 2 24 75 -15 71 -23
86 -43 79z"/>
<path d="M8590 6000 c0 -5 5 -10 11 -10 5 0 7 5 4 10 -3 6 -8 10 -11 10 -2 0
-4 -4 -4 -10z"/>
<path d="M8445 5970 c-3 -5 1 -10 9 -10 9 0 16 5 16 10 0 6 -4 10 -9 10 -6 0
-13 -4 -16 -10z"/>
<path d="M8740 5915 c0 -8 4 -15 9 -15 5 0 11 7 15 15 3 9 0 15 -9 15 -8 0
-15 -7 -15 -15z"/>
<path d="M720 5882 c0 -6 -15 -13 -32 -15 l-33 -4 33 -1 c40 -2 43 -22 2 -22
-23 0 -30 -4 -30 -20 0 -11 -4 -20 -10 -20 -5 0 -10 -9 -10 -20 0 -11 -4 -20
-10 -20 -15 0 -13 -137 3 -144 10 -5 10 -7 0 -12 -21 -10 -16 -44 7 -44 11 0
20 -4 20 -10 0 -5 14 -10 30 -10 23 0 30 -4 30 -20 0 -17 7 -20 40 -20 22 0
40 5 40 10 0 6 33 10 80 10 73 0 80 -2 80 -20 0 -18 7 -20 60 -20 33 0 60 -4
60 -10 0 -5 9 -10 20 -10 17 0 20 7 20 40 0 38 2 40 30 40 17 0 30 5 30 10 0
6 18 10 40 10 22 0 40 5 40 10 0 6 -5 10 -11 10 -6 0 -8 9 -4 20 5 14 2 20 -9
20 -9 0 -16 5 -16 10 0 6 -4 10 -10 10 -5 0 -10 -9 -10 -20 0 -11 -4 -20 -10
-20 -5 0 -10 9 -10 20 0 11 -4 20 -10 20 -5 0 -10 9 -10 20 0 11 -4 20 -10 20
-5 0 -10 9 -10 20 0 40 -22 70 -52 70 -18 0 -28 5 -28 15 0 8 -9 15 -20 15
-13 0 -20 7 -20 20 0 13 -7 20 -20 20 -13 0 -20 7 -20 19 0 16 -10 21 -46 27
-25 3 -69 3 -97 -1 -68 -9 -79 -9 -99 0 -11 4 -18 3 -18 -3z"/>
<path d="M8607 5810 c3 -11 9 -23 14 -26 5 -3 9 -16 9 -29 0 -37 11 -55 32
-55 12 0 27 -8 34 -17 7 -10 15 -15 18 -12 8 8 -22 65 -52 98 -12 14 -25 34
-28 44 -8 25 -33 22 -27 -3z"/>
<path d="M6173 5713 c-18 -2 -33 -7 -33 -10 0 -22 53 -260 59 -266 4 -4 15 -5
24 -1 12 4 15 14 10 37 -3 18 -6 36 -7 41 -3 25 29 13 62 -23 22 -25 46 -41
60 -41 29 0 28 8 -9 53 -27 33 -29 40 -20 70 29 91 -37 155 -146 140z m87 -63
c33 -33 19 -70 -26 -70 -23 0 -34 17 -34 54 0 41 28 48 60 16z"/>
<path d="M7221 5694 c-25 -32 -26 -55 -6 -94 17 -33 43 -50 77 -50 32 0 50 14
42 33 -4 12 -14 15 -35 10 -42 -8 -37 15 6 33 46 19 53 39 25 70 -32 34 -82
33 -109 -2z m79 -27 c0 -17 -47 -40 -55 -28 -3 5 -2 16 1 25 7 19 54 22 54 3z"/>
<path d="M7070 5685 c-9 -11 -16 -13 -24 -5 -13 13 -63 13 -71 0 -3 -5 -20 -7
-37 -3 -30 6 -30 6 -24 -28 23 -115 28 -129 48 -129 19 0 20 4 14 53 -7 63 5
91 29 66 9 -8 18 -33 22 -55 13 -88 50 -81 49 9 -1 47 2 62 13 62 17 0 26 -18
38 -70 6 -31 13 -41 31 -43 20 -3 22 0 16 25 -17 76 -27 109 -36 121 -14 17
-53 15 -68 -3z"/>
<path d="M6819 5665 c-3 -3 -1 -27 5 -54 7 -38 7 -53 -4 -66 -21 -25 -34 -12
-50 51 -10 40 -21 60 -33 62 -20 4 -22 -15 -6 -88 16 -73 55 -102 92 -66 8 8
24 12 40 9 32 -6 32 -4 9 87 -15 59 -35 83 -53 65z"/>
<path d="M5444 5645 c-5 -12 14 -127 42 -262 3 -16 12 -23 27 -23 l23 0 -27
140 c-16 78 -31 145 -34 150 -9 15 -25 12 -31 -5z"/>
<path d="M6581 5636 c-7 -8 -11 -27 -9 -43 2 -21 12 -32 41 -46 41 -19 41 -43
0 -32 -20 5 -24 2 -21 -12 5 -27 76 -25 94 2 17 26 -2 69 -33 73 -28 4 -51 30
-32 36 43 13 50 17 44 26 -9 15 -71 12 -84 -4z"/>
<path d="M560 5620 c0 -13 7 -20 20 -20 13 0 20 7 20 20 0 13 -7 20 -20 20
-13 0 -20 -7 -20 -20z"/>
<path d="M6400 5608 c-32 -35 -23 -103 19 -135 30 -23 101 -14 101 13 0 15
-10 17 -47 14 -37 -3 -26 19 21 42 44 21 45 22 31 48 -24 46 -90 56 -125 18z
m80 -27 c0 -6 -10 -17 -22 -25 -25 -18 -44 -7 -35 18 7 17 57 23 57 7z"/>
<path d="M4301 5604 c0 -11 3 -14 6 -6 3 7 2 16 -1 19 -3 4 -6 -2 -5 -13z"/>
<path d="M5546 5601 c-9 -15 23 -36 36 -23 5 5 7 15 4 21 -9 13 -33 14 -40 2z"/>
<path d="M8810 5595 c0 -8 5 -15 10 -15 6 0 10 7 10 15 0 8 -4 15 -10 15 -5 0
-10 -7 -10 -15z"/>
<path d="M5043 5593 c-12 -2 -34 -18 -47 -34 -109 -130 72 -331 188 -210 91
95 -11 270 -141 244z m100 -84 c19 -21 27 -40 27 -66 0 -41 -31 -83 -61 -83
-92 0 -138 147 -56 180 31 12 58 3 90 -31z"/>
<path d="M5876 5548 c-9 -12 -16 -38 -16 -56 0 -63 80 -114 129 -83 23 15 5
42 -25 39 -42 -5 -39 17 6 37 24 11 40 25 40 35 0 49 -104 71 -134 28z m79
-19 c8 -11 -22 -38 -42 -39 -16 0 -17 22 -1 38 15 15 35 15 43 1z"/>
<path d="M5724 5546 c-10 -8 -29 -12 -41 -9 -27 6 -28 -2 -11 -93 10 -57 14
-64 35 -64 13 0 23 1 23 3 0 1 -5 18 -10 37 -14 47 -4 90 21 90 21 0 34 -25
44 -82 4 -29 11 -38 25 -38 23 0 24 10 9 82 -17 81 -50 107 -95 74z"/>
<path d="M8789 5553 c-1 -4 -1 -11 0 -15 0 -5 -4 -8 -10 -8 -5 0 -7 -5 -4 -10
5 -8 12 -7 22 2 14 11 15 10 9 -10 -5 -13 -3 -22 3 -22 6 0 11 11 11 25 0 14
0 28 1 33 0 10 -31 15 -32 5z"/>
<path d="M5565 5487 c15 -98 20 -112 43 -115 28 -4 28 -2 -3 136 -4 14 -13 22
-26 22 -18 0 -20 -4 -14 -43z"/>
<path d="M5325 5500 c-3 -6 -17 -7 -30 -4 -32 8 -36 -5 -24 -72 13 -71 25 -95
43 -88 11 4 13 20 9 64 -5 51 -3 61 12 66 24 10 42 -17 51 -72 5 -38 10 -44
30 -44 13 0 24 3 24 8 -2 26 -31 126 -40 138 -14 16 -66 19 -75 4z"/>
<path d="M8813 5460 c-21 -9 -42 -55 -30 -66 7 -8 44 34 50 57 3 10 4 19 4 18
-1 0 -12 -4 -24 -9z"/>
<path d="M7250 5136 c0 -8 4 -17 9 -20 5 -4 7 3 4 14 -6 23 -13 26 -13 6z"/>
<path d="M6960 5101 c0 -5 7 -15 17 -22 15 -13 15 -12 4 9 -12 23 -21 28 -21
13z"/>
<path d="M6480 5040 c0 -5 5 -10 11 -10 5 0 7 5 4 10 -3 6 -8 10 -11 10 -2 0
-4 -4 -4 -10z"/>
<path d="M5830 5000 c0 -5 5 -10 10 -10 6 0 10 5 10 10 0 6 -4 10 -10 10 -5 0
-10 -4 -10 -10z"/>
<path d="M9720 4931 c0 -30 4 -68 10 -85 5 -17 12 -44 15 -59 3 -17 15 -31 30
-37 20 -7 25 -19 31 -59 8 -58 23 -77 47 -58 14 11 14 15 -3 50 -10 21 -26 61
-36 90 -9 29 -34 88 -55 132 l-39 80 0 -54z"/>
<path d="M5240 4925 c0 -8 2 -15 4 -15 2 0 6 7 10 15 3 8 1 15 -4 15 -6 0 -10
-7 -10 -15z"/>
<path d="M6835 4630 c4 -6 11 -8 16 -5 14 9 11 15 -7 15 -8 0 -12 -5 -9 -10z"/>
<path d="M6711 4604 c0 -11 3 -14 6 -6 3 7 2 16 -1 19 -3 4 -6 -2 -5 -13z"/>
<path d="M6144 4563 c2 -10 6 -17 10 -16 15 3 16 11 2 22 -12 10 -14 9 -12 -6z"/>
<path d="M6241 4564 c0 -11 3 -14 6 -6 3 7 2 16 -1 19 -3 4 -6 -2 -5 -13z"/>
<path d="M5941 4545 c1 -11 5 -31 9 -45 8 -24 8 -24 9 5 0 17 -4 37 -9 45 -8
12 -10 11 -9 -5z"/>
<path d="M6100 4551 c0 -5 5 -13 10 -16 6 -3 10 -2 10 4 0 5 -4 13 -10 16 -5
3 -10 2 -10 -4z"/>
<path d="M6070 4531 c0 -11 4 -22 9 -25 4 -3 6 6 3 19 -5 30 -12 33 -12 6z"/>
<path d="M5990 4524 c0 -10 5 -26 10 -34 8 -11 9 -7 4 15 -8 37 -14 45 -14 19z"/>
<path d="M5490 4504 c0 -8 5 -12 10 -9 6 3 10 10 10 16 0 5 -4 9 -10 9 -5 0
-10 -7 -10 -16z"/>
<path d="M5790 4510 c0 -5 9 -19 20 -30 14 -14 20 -16 20 -6 0 8 -7 17 -16 20
-8 3 -12 10 -9 16 3 5 1 10 -4 10 -6 0 -11 -4 -11 -10z"/>
<path d="M5852 4500 c0 -14 2 -19 5 -12 2 6 2 18 0 25 -3 6 -5 1 -5 -13z"/>
<path d="M5572 4490 c0 -14 2 -19 5 -12 2 6 2 18 0 25 -3 6 -5 1 -5 -13z"/>
<path d="M5696 4497 c3 -10 9 -15 12 -12 3 3 0 11 -7 18 -10 9 -11 8 -5 -6z"/>
<path d="M5740 4503 c0 -6 8 -17 18 -24 16 -13 16 -13 2 6 -8 11 -16 22 -17
24 -2 2 -3 0 -3 -6z"/>
<path d="M4070 4474 c-52 -17 -131 -60 -135 -75 -3 -9 -16 -20 -28 -23 -12 -3
-54 -37 -94 -77 -56 -55 -77 -85 -98 -136 -30 -75 -45 -219 -27 -256 6 -12 13
-33 15 -47 10 -48 34 -100 58 -126 92 -101 331 -244 422 -253 20 -2 2 -20 -40
-41 -69 -34 -164 -134 -187 -195 -47 -127 -47 -125 -41 -229 7 -104 34 -208
67 -258 10 -14 18 -33 18 -42 0 -9 5 -16 10 -16 6 0 10 -5 10 -11 0 -6 25 -39
55 -74 30 -34 55 -67 55 -73 0 -5 20 -37 45 -70 43 -57 59 -69 189 -145 21
-11 25 -17 13 -17 -9 0 -17 -7 -17 -15 0 -11 11 -15 36 -15 27 0 37 -5 41 -19
4 -14 13 -19 34 -19 16 1 29 5 29 10 0 4 5 8 11 8 8 0 7 -5 -1 -15 -7 -9 -11
-18 -8 -20 9 -9 38 6 38 19 0 7 16 21 36 32 19 10 48 39 64 64 34 53 77 95
105 103 93 27 130 46 128 63 -1 11 -9 70 -18 132 -18 132 -18 152 -6 152 9 0
26 -70 51 -205 21 -117 20 -114 64 -140 23 -14 61 -50 84 -81 23 -31 42 -53
42 -48 0 5 -11 59 -24 119 -25 109 -82 428 -89 495 -4 32 -7 34 -36 34 -25 -1
-29 1 -20 13 7 7 12 47 13 88 1 72 0 76 -29 100 -28 23 -39 27 -99 40 -14 3
-38 17 -55 31 l-31 26 -18 -22 c-16 -20 -19 -21 -31 -6 -17 20 -53 20 -91 1
-21 -11 -31 -12 -36 -4 -9 15 -161 3 -189 -15 -11 -7 -34 -16 -51 -19 -27 -5
-33 -3 -38 16 -10 39 -6 71 13 103 30 49 113 123 151 134 19 6 44 15 55 19 11
5 45 16 76 25 36 10 69 29 93 52 l37 36 -11 55 c-10 56 -5 87 11 62 4 -7 11
-35 14 -62 l7 -49 37 7 c20 4 51 8 69 9 32 1 33 3 27 31 -8 37 -21 114 -37
223 -6 45 -15 82 -18 82 -4 0 -12 -18 -19 -40 -18 -61 -50 -110 -72 -110 -16
0 -18 7 -18 48 2 52 -14 92 -34 92 -7 0 -20 8 -29 18 -27 28 -52 47 -63 47 -5
0 -17 15 -25 32 l-15 33 -100 0 c-55 0 -129 5 -164 11 -79 12 -156 -2 -172
-33 -17 -31 -29 -4 -29 62 0 44 6 65 27 98 36 56 97 80 243 99 180 23 173 19
104 58 -53 31 -67 34 -137 35 -81 0 -107 11 -107 45 0 9 -4 14 -9 11 -5 -3
-11 3 -14 14 -4 15 -13 20 -39 19 -18 0 -40 -3 -48 -5z m160 -1116 c0 -19 -18
-43 -25 -36 -9 9 4 48 16 48 5 0 9 -6 9 -12z m240 -1058 c11 -7 7 -10 -18 -10
-20 0 -31 4 -27 10 8 13 26 13 45 0z"/>
<path d="M5480 4466 c0 -9 5 -16 10 -16 6 0 10 4 10 9 0 6 -4 13 -10 16 -5 3
-10 -1 -10 -9z"/>
<path d="M5518 4474 c-3 -5 3 -17 14 -26 21 -21 24 -10 5 17 -8 10 -16 14 -19
9z"/>
<path d="M5652 4468 c2 -6 10 -14 16 -16 7 -2 10 2 6 12 -7 18 -28 22 -22 4z"/>
<path d="M6015 4470 c-3 -5 -1 -10 4 -10 6 0 11 5 11 10 0 6 -2 10 -4 10 -3 0
-8 -4 -11 -10z"/>
<path d="M6051 4471 c-10 -6 1 -8 30 -4 24 3 46 7 48 9 10 9 -65 3 -78 -5z"/>
<path d="M5695 4460 c-3 -5 1 -10 9 -10 9 0 16 5 16 10 0 6 -4 10 -9 10 -6 0
-13 -4 -16 -10z"/>
<path d="M5710 4434 c-212 -25 -275 -36 -165 -28 137 10 380 39 370 45 -5 3
-98 -5 -205 -17z"/>
<path d="M5968 4453 c6 -2 18 -2 25 0 6 3 1 5 -13 5 -14 0 -19 -2 -12 -5z"/>
<path d="M7385 4450 c3 -5 8 -10 11 -10 2 0 4 5 4 10 0 6 -5 10 -11 10 -5 0
-7 -4 -4 -10z"/>
<path d="M7250 4411 c0 -5 5 -13 10 -16 6 -3 10 -2 10 4 0 5 -4 13 -10 16 -5
3 -10 2 -10 -4z"/>
<path d="M6651 4364 c0 -11 3 -14 6 -6 3 7 2 16 -1 19 -3 4 -6 -2 -5 -13z"/>
<path d="M483 4363 c-23 -4 -34 -43 -13 -43 6 0 10 -18 10 -40 l0 -40 80 0
c47 0 80 4 80 10 0 6 18 10 40 10 22 0 40 -4 40 -10 0 -15 70 -12 86 4 16 17
19 46 4 46 -5 0 -10 8 -10 18 0 17 -12 20 -117 25 -66 4 -119 11 -121 17 -4
10 -36 11 -79 3z"/>
<path d="M6475 4320 c3 -5 8 -10 11 -10 2 0 4 5 4 10 0 6 -5 10 -11 10 -5 0
-7 -4 -4 -10z"/>
<path d="M6011 4274 c0 -11 3 -14 6 -6 3 7 2 16 -1 19 -3 4 -6 -2 -5 -13z"/>
<path d="M5361 4194 c0 -11 3 -14 6 -6 3 7 2 16 -1 19 -3 4 -6 -2 -5 -13z"/>
<path d="M1940 4170 c0 -5 14 -10 30 -10 17 0 30 5 30 10 0 6 -13 10 -30 10
-16 0 -30 -4 -30 -10z"/>
<path d="M1940 4105 c0 -19 -4 -35 -10 -35 -5 0 -10 -7 -10 -15 0 -8 -9 -15
-20 -15 -13 0 -20 -7 -20 -20 0 -17 -7 -20 -40 -20 -22 0 -40 -4 -40 -10 0 -5
-9 -10 -20 -10 -11 0 -20 -4 -20 -10 0 -5 -18 -10 -40 -10 -33 0 -40 -3 -40
-20 0 -13 -7 -20 -20 -20 -17 0 -20 -7 -20 -40 0 -33 -3 -40 -20 -40 -17 0
-20 -7 -20 -40 l0 -40 80 0 c73 0 80 -2 80 -20 0 -16 7 -20 30 -20 21 0 30 5
30 16 0 26 26 44 64 44 33 0 36 2 36 30 l0 30 70 0 70 0 0 36 c0 19 6 42 14
50 16 16 86 19 86 4 0 -5 9 -10 20 -10 16 0 20 7 20 30 0 23 -4 30 -20 30 -11
0 -20 5 -20 10 0 6 -9 10 -20 10 -18 0 -20 7 -20 56 0 61 -22 101 -42 73 -7
-11 -11 -11 -15 -1 -3 8 -26 12 -64 12 l-59 0 0 -35z"/>
<path d="M1260 3990 c0 -5 -9 -10 -21 -10 -24 0 -49 -22 -49 -44 0 -12 -10
-16 -35 -16 -28 0 -35 -4 -35 -20 0 -18 -7 -20 -70 -20 -63 0 -70 -2 -70 -20
0 -13 -7 -20 -20 -20 -11 0 -20 -4 -20 -10 0 -5 -10 -10 -22 -10 -12 0 -29 -7
-39 -16 -13 -12 -28 -14 -58 -9 -23 4 -41 11 -41 16 0 16 -117 11 -134 -6 -10
-10 -35 -15 -80 -15 -52 0 -66 -3 -66 -15 0 -12 14 -15 70 -15 56 0 70 -3 70
-15 0 -12 -13 -15 -59 -15 -86 0 -121 -9 -121 -31 0 -11 5 -19 10 -19 6 0 10
-19 10 -42 l0 -41 -120 6 c-77 5 -120 3 -120 -3 0 -14 -123 -13 -155 2 -16 7
-25 19 -25 35 0 19 -5 23 -30 23 l-30 0 0 -300 0 -300 66 0 c67 0 94 13 94 44
0 12 10 16 38 16 26 0 42 6 52 20 8 11 26 20 40 20 14 0 32 9 40 20 8 11 22
20 32 20 13 0 18 8 18 26 0 16 12 37 33 57 20 19 27 32 20 34 -9 3 -13 25 -13
64 0 59 0 59 30 59 17 0 30 -4 30 -10 0 -5 18 -10 40 -10 33 0 40 3 40 20 0
17 7 20 40 20 l40 0 0 110 0 110 70 0 c63 0 70 2 70 20 0 13 7 20 20 20 11 0
20 5 20 10 0 6 11 10 24 10 33 0 40 -25 37 -132 l-3 -88 41 0 c23 0 41 -4 41
-10 0 -6 33 -10 80 -10 66 0 80 -3 80 -16 0 -38 23 -44 174 -44 l146 0 0 80
c0 47 -4 80 -10 80 -5 0 -10 18 -10 40 0 22 -4 40 -10 40 -5 0 -10 -9 -10 -20
0 -11 -4 -20 -10 -20 -5 0 -10 9 -10 20 0 17 -7 20 -40 20 l-40 0 0 40 c0 38
2 40 30 40 17 0 30 5 30 10 0 6 18 10 40 10 l40 0 0 75 0 75 -30 0 c-25 0 -30
4 -30 25 0 18 -5 25 -20 25 -11 0 -20 5 -20 10 0 14 -37 12 -44 -2 -5 -10 -7
-10 -12 0 -7 14 -24 16 -24 2z m-1140 -420 c0 -5 -5 -10 -11 -10 -5 0 -7 5 -4
10 3 6 8 10 11 10 2 0 4 -4 4 -10z"/>
<path d="M1700 3985 c0 -8 5 -15 10 -15 6 0 10 7 10 15 0 8 -4 15 -10 15 -5 0
-10 -7 -10 -15z"/>
<path d="M2420 3910 c0 -5 5 -10 10 -10 6 0 10 -13 10 -30 0 -16 5 -30 10 -30
6 0 10 18 10 40 0 33 -3 40 -20 40 -11 0 -20 -4 -20 -10z"/>
<path d="M2080 3870 c0 -16 5 -30 10 -30 6 0 10 14 10 30 0 17 -4 30 -10 30
-5 0 -10 -13 -10 -30z"/>
<path d="M2720 3810 c0 -6 33 -10 80 -10 47 0 80 4 80 10 0 6 -33 10 -80 10
-47 0 -80 -4 -80 -10z"/>
<path d="M1851 3744 c-17 -20 -6 -31 14 -14 10 8 15 9 15 1 0 -6 5 -11 10 -11
6 0 10 9 10 20 0 24 -29 26 -49 4z"/>
<path d="M7640 3724 c-52 -7 -266 -34 -475 -59 -209 -25 -524 -63 -700 -85
-176 -22 -509 -62 -740 -90 -258 -32 -428 -57 -441 -65 -42 -27 -40 -51 22
-375 12 -61 20 -80 46 -104 37 -33 -16 -36 488 28 195 25 411 52 480 60 69 8
359 45 645 81 286 36 592 75 680 85 261 32 284 36 305 55 24 22 26 67 6 145
-8 30 -24 102 -36 160 -25 116 -40 154 -69 170 -25 13 -90 11 -211 -6z m-465
-281 c3 -21 9 -49 12 -62 4 -17 2 -22 -7 -19 -14 4 -42 107 -33 121 9 14 21
-3 28 -40z m133 20 c5 -10 10 -36 10 -57 1 -36 0 -38 -14 -24 -19 19 -32 98
-16 98 6 0 15 -8 20 -17z m147 -3 c3 -5 1 -10 -6 -10 -8 0 -6 -7 5 -19 21 -23
14 -41 -16 -41 -13 0 -18 5 -15 14 3 7 1 18 -5 24 -6 6 -8 18 -5 26 7 18 33
21 42 6z m-67 -8 c8 -6 10 -19 6 -40 -8 -41 -40 -44 -55 -5 -8 22 -7 30 7 40
21 15 25 15 42 5z m-533 -72 c1 -69 -15 -76 -28 -12 -5 26 -14 42 -23 42 -15
0 -19 12 -7 23 3 4 18 7 32 7 25 0 26 -2 26 -60z m416 27 c6 -24 4 -30 -16
-39 -30 -13 -55 3 -55 37 0 29 9 37 39 33 17 -2 27 -11 32 -31z m-137 7 c22
-22 20 -55 -4 -61 -11 -3 -20 -14 -20 -24 0 -35 -18 -19 -29 25 -15 59 -14 64
7 69 29 8 30 8 46 -9z m-518 -22 c4 -21 12 -28 26 -28 24 1 45 -51 27 -69 -6
-6 -12 -2 -15 13 -4 12 -11 22 -16 22 -6 0 -8 -9 -5 -20 3 -12 0 -20 -7 -20
-11 0 -36 80 -36 116 0 26 20 15 26 -14z m432 16 c14 -14 16 -68 2 -68 -5 0
-10 9 -10 19 0 34 -19 33 -22 -1 l-4 -33 -14 30 -13 30 -7 -30 -7 -30 -11 28
c-17 40 -15 46 16 53 15 3 32 7 37 9 18 6 21 5 33 -7z m-473 -7 c3 -5 1 -13
-5 -16 -7 -4 -8 -25 -4 -56 8 -60 -11 -68 -21 -10 -4 22 -13 45 -21 52 -20 16
-17 27 9 32 12 2 25 5 29 6 4 0 9 -3 13 -8z m356 -8 c5 -30 4 -65 -3 -69 -30
-19 -70 34 -48 61 13 16 49 21 51 8z m-193 -25 c16 -20 3 -68 -19 -68 -27 0
-46 44 -29 65 15 18 34 19 48 3z m-440 -14 c15 -10 22 -25 22 -49 0 -75 -70
-86 -100 -15 -10 25 -10 34 4 55 19 29 42 32 74 9z m148 5 c11 -18 13 -89 2
-89 -11 0 -28 45 -28 76 0 25 14 32 26 13z m-331 -39 c4 -16 11 -27 18 -24 7
2 17 -10 23 -29 10 -33 9 -34 -18 -34 -24 0 -30 6 -37 36 -10 36 -14 69 -12
84 2 17 20 -5 26 -33z m-230 -19 c5 -22 11 -28 25 -24 14 4 21 -2 25 -20 4
-14 5 -34 2 -44 -3 -15 -6 -12 -17 12 l-14 30 -4 -27 c-2 -16 -7 -28 -12 -28
-11 0 -30 65 -30 103 0 36 17 35 25 -2z m482 2 l11 -28 1 28 c1 30 15 36 25
11 12 -31 6 -52 -16 -58 -27 -7 -48 16 -48 51 0 31 14 29 27 -4z m-527 -2 c0
-5 -9 -11 -20 -14 -45 -12 -31 -67 17 -67 31 0 26 -24 -6 -28 -43 -7 -83 57
-61 98 14 26 70 35 70 11z m238 -19 c2 -7 -3 -12 -12 -12 -23 0 -20 -21 4 -27
25 -7 26 -23 2 -23 -36 0 -55 43 -30 68 14 14 30 11 36 -6z m-68 -7 c10 -11
10 -19 2 -27 -6 -6 -8 -17 -5 -24 6 -18 -28 -19 -45 -2 -23 23 -7 68 24 68 6
0 17 -7 24 -15z"/>
<path d="M7220 3406 c0 -9 5 -16 10 -16 6 0 10 4 10 9 0 6 -4 13 -10 16 -5 3
-10 -1 -10 -9z"/>
<path d="M7100 3385 c0 -8 5 -15 10 -15 6 0 10 7 10 15 0 8 -4 15 -10 15 -5 0
-10 -7 -10 -15z"/>
<path d="M6245 3330 c-9 -15 3 -47 21 -54 21 -8 34 1 34 23 0 32 -40 55 -55
31z"/>
<path d="M10062 3605 c0 -16 2 -22 5 -12 2 9 2 23 0 30 -3 6 -5 -1 -5 -18z"/>
<path d="M10020 3575 c-8 -9 -8 -15 -2 -15 12 0 26 19 19 26 -2 2 -10 -2 -17
-11z"/>
<path d="M9910 3556 c0 -8 -6 -17 -12 -19 -10 -4 -10 -6 0 -6 13 -1 42 22 42
33 0 3 -7 6 -15 6 -8 0 -15 -6 -15 -14z"/>
<path d="M9838 3513 c-52 -8 -28 -20 53 -27 81 -8 96 -5 85 12 -3 6 -20 7 -40
2 -26 -6 -36 -4 -40 6 -5 14 -8 14 -58 7z"/>
<path d="M10025 3490 c-3 -5 3 -10 15 -10 12 0 18 5 15 10 -3 6 -10 10 -15 10
-5 0 -12 -4 -15 -10z"/>
<path d="M9727 3473 c-15 -14 -6 -31 13 -26 11 3 20 12 20 19 0 14 -22 19 -33
7z"/>
<path d="M9230 3419 c0 -5 5 -7 10 -4 6 3 10 8 10 11 0 2 -4 4 -10 4 -5 0 -10
-5 -10 -11z"/>
<path d="M2042 3335 c-14 -31 -6 -55 19 -55 10 0 19 -4 19 -10 0 -5 9 -10 20
-10 16 0 20 -7 20 -30 0 -23 -4 -30 -20 -30 -13 0 -20 -7 -20 -20 0 -11 -4
-20 -10 -20 -5 0 -10 -18 -10 -40 0 -22 5 -40 10 -40 6 0 10 -9 10 -20 0 -18
7 -20 80 -20 73 0 80 -2 80 -20 0 -18 7 -20 70 -20 40 0 70 4 70 10 0 6 -13
10 -30 10 -16 0 -30 5 -30 10 0 6 -18 10 -40 10 -33 0 -40 3 -40 20 0 17 7 20
40 20 33 0 40 3 40 20 0 16 -7 20 -30 20 -23 0 -30 4 -30 20 0 13 -7 20 -20
20 -13 0 -20 7 -20 20 0 16 -7 20 -30 20 l-30 0 0 80 0 80 -53 0 c-48 0 -55
-3 -65 -25z"/>
<path d="M9720 3350 c0 -12 99 -10 106 2 3 4 -20 8 -50 8 -31 0 -56 -5 -56
-10z"/>
<path d="M9885 3340 c3 -5 25 -10 48 -10 31 0 38 3 27 10 -20 13 -83 13 -75 0z"/>
<path d="M9958 3233 c7 -3 16 -2 19 1 4 3 -2 6 -13 5 -11 0 -14 -3 -6 -6z"/>
<path d="M1680 2895 c0 -10 -10 -15 -30 -15 -16 0 -30 -4 -30 -9 0 -6 -20 -13
-45 -17 -44 -6 -45 -7 -44 -43 0 -20 3 -30 6 -23 2 6 18 12 34 12 27 0 29 -2
29 -40 0 -33 -3 -40 -20 -40 -13 0 -20 -7 -20 -20 0 -11 -4 -20 -10 -20 -5 0
-10 9 -10 20 0 11 -4 20 -10 20 -11 0 -13 -39 -4 -64 4 -10 18 -16 40 -16 33
0 34 -1 34 -40 l0 -40 120 0 120 0 0 40 c0 38 2 40 30 40 28 0 30 2 30 40 0
38 -2 40 -30 40 l-30 0 0 70 0 70 -30 0 c-16 0 -30 5 -30 10 0 6 -9 10 -20 10
-11 0 -20 7 -20 15 0 10 -10 15 -30 15 -20 0 -30 -5 -30 -15z"/>
<path d="M1120 2720 l0 -40 70 0 70 0 0 40 0 40 -70 0 -70 0 0 -40z"/>
<path d="M6575 2675 c9 -60 24 -80 55 -70 23 7 19 20 -8 20 -12 0 -20 13 -27
42 -15 61 -28 66 -20 8z"/>
<path d="M6670 2656 c0 -33 26 -54 45 -35 22 21 8 59 -21 59 -19 0 -24 -5 -24
-24z m43 -1 c8 -18 -11 -31 -25 -17 -11 11 -3 32 12 32 4 0 10 -7 13 -15z"/>
<path d="M0 1290 l0 -1290 806 0 807 0 -6 78 c-5 77 -19 122 -59 196 -18 34
-20 50 -16 146 4 71 10 114 19 124 8 9 30 33 49 54 39 42 60 82 60 116 0 18 7
25 29 29 16 3 36 13 44 22 9 8 23 15 31 15 9 0 16 7 16 15 0 28 45 64 70 58
15 -4 27 -1 34 9 10 14 32 22 101 35 17 3 37 14 46 24 12 14 30 19 63 19 39 0
46 3 46 20 0 16 7 20 35 20 31 0 46 10 115 80 l79 80 55 0 c62 0 156 19 156
32 0 4 39 8 86 8 88 0 114 10 114 44 0 9 7 16 16 16 8 0 23 7 31 16 14 13 14
17 2 24 -7 5 -10 12 -6 17 5 4 12 1 18 -7 8 -13 10 -13 20 0 8 11 12 12 16 3
10 -27 23 -11 23 27 0 22 -4 40 -10 40 -5 0 -10 -9 -10 -20 0 -11 -4 -20 -10
-20 -16 0 -12 30 7 48 12 12 18 13 21 4 5 -15 202 -17 202 -2 0 6 18 10 39 10
22 0 42 6 45 13 5 10 7 10 12 0 9 -20 24 -15 24 7 0 17 7 20 50 20 28 0 50 5
50 10 0 6 9 10 20 10 16 0 20 7 20 30 0 23 4 30 20 30 17 0 20 7 20 50 l0 50
-180 0 -180 0 0 -50 c0 -43 3 -50 20 -50 16 0 20 -7 20 -30 l0 -30 -104 0
c-59 0 -108 -4 -111 -10 -3 -5 -19 -10 -36 -10 -27 0 -29 2 -29 40 0 33 -3 40
-20 40 -11 0 -20 -4 -20 -10 0 -5 -9 -10 -21 -10 -13 0 -20 -6 -18 -17 5 -58
2 -63 -51 -63 -38 0 -50 -4 -50 -15 0 -10 -10 -15 -30 -15 -28 0 -30 3 -30 35
0 32 2 35 30 35 28 0 30 3 30 36 0 45 19 64 64 64 33 0 36 2 36 30 0 27 3 30
30 30 28 0 30 3 30 36 0 45 19 64 64 64 l36 0 0 110 0 110 -160 0 -160 0 0 40
0 40 -40 0 -40 0 0 40 c0 22 5 40 10 40 6 0 10 -9 10 -20 0 -11 5 -20 10 -20
6 0 10 9 10 20 0 13 7 20 20 20 18 0 20 7 20 80 0 47 4 80 10 80 15 0 12 60
-4 76 -8 8 -26 14 -40 14 -23 0 -26 4 -26 35 0 32 2 35 30 35 l30 0 0 60 c0
33 -4 60 -10 60 -5 0 -10 9 -10 20 0 18 -7 20 -70 20 l-70 0 0 -70 0 -70 -80
0 c-79 0 -80 0 -80 25 0 23 -3 25 -52 25 -40 0 -49 3 -38 11 11 7 -8 9 -65 4
-159 -13 -239 -14 -246 -3 -4 7 -23 8 -53 4 -46 -7 -46 -7 -46 -47 0 -37 -2
-39 -30 -39 l-30 0 0 -70 0 -70 -60 0 c-33 0 -60 4 -60 10 0 6 -37 10 -91 10
-81 0 -90 2 -79 15 20 24 2 31 -19 7 -22 -26 -31 -28 -31 -6 0 26 26 44 64 44
20 0 36 5 36 10 0 6 -33 10 -80 10 -73 0 -80 2 -80 20 0 18 -7 20 -68 20 -56
0 -70 -3 -82 -20 -10 -14 -26 -20 -52 -20 -25 0 -38 -5 -38 -13 0 -9 -27 -18
-80 -27 -44 -7 -80 -17 -80 -22 0 -4 -18 -8 -40 -8 -29 0 -40 4 -40 15 0 8 -4
15 -10 15 -5 0 -10 7 -10 15 0 8 -6 15 -12 15 -9 0 -8 4 2 10 11 7 7 10 -17
10 -23 0 -33 5 -33 15 0 8 9 15 20 15 17 0 20 7 20 40 0 36 -3 40 -24 40 -40
0 -56 11 -56 36 0 17 -6 24 -20 24 -11 0 -20 -4 -20 -9 0 -4 -59 -11 -132 -15
-142 -7 -268 7 -268 31 0 8 -14 13 -40 13 -22 0 -40 5 -40 10 0 6 -33 10 -80
10 l-80 0 0 -1290z m2500 860 c0 -5 -4 -10 -10 -10 -5 0 -10 5 -10 10 0 6 5
10 10 10 6 0 10 -4 10 -10z m20 -20 c0 -5 -5 -10 -11 -10 -5 0 -7 5 -4 10 3 6
8 10 11 10 2 0 4 -4 4 -10z m-996 -122 c5 -10 7 -10 12 0 3 6 14 12 25 12 14
0 19 -7 19 -26 0 -26 11 -39 64 -79 29 -22 36 -69 11 -79 -8 -3 -15 -12 -15
-20 0 -27 -61 -130 -90 -153 -15 -13 -30 -34 -34 -47 -4 -15 -17 -28 -37 -35
-40 -14 -139 -14 -139 -1 0 6 -8 10 -18 10 -32 0 -60 33 -81 98 l-21 62 20 37
c11 21 20 41 20 44 0 6 31 37 147 148 21 20 27 21 35 10 7 -11 11 -11 15 -1 2
6 13 12 24 12 10 0 19 5 19 10 0 14 17 12 24 -2z m236 -123 c0 -19 -4 -35 -10
-35 -5 0 -10 16 -10 35 0 19 5 35 10 35 6 0 10 -16 10 -35z"/>
<path d="M6799 2527 c-7 -12 -11 -42 -10 -67 4 -86 92 -370 158 -510 25 -52
49 -108 53 -125 9 -34 37 -117 53 -155 6 -14 9 -31 8 -39 -1 -7 2 -10 8 -6 6
3 11 15 11 26 0 11 14 34 30 51 17 16 30 36 30 44 0 8 8 14 19 14 24 0 32 40
20 103 -11 63 -13 65 -54 73 -32 6 -40 14 -36 38 1 5 -3 31 -10 58 -9 41 -9
52 4 66 8 9 17 26 19 37 2 10 17 26 33 35 36 18 40 23 61 78 16 40 16 43 -1
62 -10 11 -43 27 -74 36 -79 23 -101 35 -101 55 0 9 -10 19 -24 23 -13 3 -39
22 -58 42 -18 19 -54 46 -80 60 l-47 24 -12 -23z"/>
<path d="M11775 2493 c11 -3 27 -10 35 -17 13 -10 13 -9 1 7 -7 9 -23 16 -35
16 -20 -1 -20 -2 -1 -6z"/>
<path d="M11400 2460 c0 -5 5 -10 10 -10 6 0 10 5 10 10 0 6 -4 10 -10 10 -5
0 -10 -4 -10 -10z"/>
<path d="M2651 2414 c0 -11 3 -14 6 -6 3 7 2 16 -1 19 -3 4 -6 -2 -5 -13z"/>
<path d="M4000 2320 l0 -60 40 0 40 0 0 60 0 60 -40 0 -40 0 0 -60z"/>
<path d="M11650 2340 c0 -5 5 -10 10 -10 6 0 10 5 10 10 0 6 -4 10 -10 10 -5
0 -10 -4 -10 -10z"/>
<path d="M4629 2194 c-15 -8 -46 -15 -70 -15 -62 -2 -109 -25 -109 -54 0 -13
5 -25 11 -27 6 -2 1 -15 -11 -31 -12 -15 -26 -25 -31 -21 -5 3 -12 -2 -16 -11
-3 -10 0 -20 6 -25 16 -9 -6 -50 -27 -50 -7 0 -18 -13 -23 -30 -10 -28 -39
-43 -39 -20 0 6 -30 10 -70 10 -40 0 -70 -4 -70 -10 0 -5 -7 -10 -16 -10 -18
0 -44 -23 -44 -39 0 -7 -24 -11 -60 -11 -57 0 -60 1 -60 25 0 25 -1 25 -80 25
-79 0 -80 0 -80 -25 0 -25 -1 -25 -80 -25 -74 0 -80 1 -80 21 0 35 -24 49 -84
49 l-56 0 0 -80 c0 -47 -4 -80 -10 -80 -6 0 -10 -40 -10 -100 l0 -100 80 0
c47 0 80 -4 80 -10 0 -6 30 -10 69 -10 46 0 71 -4 74 -12 4 -10 8 -9 16 2 9
12 13 12 19 2 10 -15 347 -15 377 1 10 5 62 10 114 11 83 1 95 3 101 20 4 14
9 16 14 8 4 -7 4 -17 0 -23 -4 -7 -2 -10 6 -7 20 6 199 -162 244 -232 73 -111
157 -172 286 -209 35 -9 67 -24 71 -32 4 -8 13 -41 19 -74 42 -211 73 -277
178 -387 41 -43 90 -87 108 -99 27 -16 37 -33 50 -77 23 -79 7 -99 -63 -77
-40 13 -37 -56 5 -105 47 -54 92 -116 92 -126 0 -6 6 -17 14 -23 8 -7 24 -32
35 -57 l21 -44 575 0 c489 0 575 2 575 14 0 8 -3 16 -8 18 -4 2 -29 34 -56 71
-45 64 -48 71 -42 114 3 25 7 46 8 47 2 1 20 7 41 15 47 16 81 8 141 -30 69
-43 83 -38 92 36 2 17 6 40 9 52 4 17 -8 35 -51 77 -51 52 -74 67 -74 49 0
-11 -113 -14 -120 -3 -3 5 -25 12 -48 16 -32 5 -42 3 -42 -7 0 -11 -2 -11 -10
1 -5 8 -10 36 -10 63 0 38 3 47 18 48 11 1 8 4 -8 8 -17 5 -35 1 -55 -11 -42
-25 -95 -24 -102 2 -3 11 -9 20 -14 20 -5 0 -9 15 -9 33 0 38 -15 57 -46 57
-17 0 -23 7 -26 27 -3 28 -28 45 -28 19 0 -9 -8 -16 -20 -16 -13 0 -20 -7 -20
-20 0 -11 4 -20 8 -20 5 0 23 -22 41 -50 20 -30 40 -50 51 -50 10 0 20 -6 23
-12 5 -13 -1 -102 -9 -126 -5 -18 -84 15 -109 47 -28 36 -226 232 -258 256
-14 11 -28 29 -31 40 -3 11 -24 40 -46 64 -22 25 -40 50 -40 56 0 6 -11 22
-25 35 -22 21 -24 29 -24 120 1 82 -3 104 -22 141 -13 24 -25 64 -28 88 -5 39
-10 46 -36 53 -35 10 -155 0 -155 -13 0 -5 -5 -9 -11 -9 -6 0 -22 -9 -36 -20
-14 -11 -23 -20 -20 -20 3 0 -5 -11 -18 -24 -23 -23 -65 -138 -65 -180 0 -12
-6 -30 -13 -40 -11 -15 -18 -16 -34 -8 -25 14 -32 42 -78 307 -20 116 -40 228
-45 250 -5 22 -12 61 -15 87 -7 56 -25 77 -58 71 -22 -4 -24 -1 -35 64 -6 37
-14 89 -17 115 -3 26 -10 50 -16 53 -5 4 -23 35 -40 71 -33 69 -29 66 -124 69
-45 2 -84 16 -127 46 -22 16 -37 19 -63 15 -28 -6 -35 -3 -40 14 -7 23 -19 24
-56 4z m435 -511 c7 -24 58 -313 86 -483 39 -243 94 -386 187 -489 23 -25 40
-47 38 -49 -8 -8 -53 23 -73 51 -12 18 -36 50 -53 72 -71 94 -111 227 -159
530 -17 105 -37 231 -45 281 -8 49 -15 93 -15 97 0 15 29 6 34 -10z"/>
<path d="M2960 2175 c0 -8 -9 -15 -20 -15 -13 0 -20 -7 -20 -20 0 -11 -4 -20
-10 -20 -5 0 -10 -9 -10 -20 0 -16 7 -20 30 -20 23 0 30 -4 30 -20 0 -17 7
-20 40 -20 33 0 40 3 40 20 0 17 7 20 40 20 33 0 40 3 40 20 0 11 -4 20 -10
20 -5 0 -10 9 -10 20 0 11 -4 20 -10 20 -5 0 -10 -9 -10 -20 0 -13 -7 -20 -20
-20 -16 0 -20 7 -20 35 0 34 -1 35 -40 35 -29 0 -40 -4 -40 -15z"/>
<path d="M3200 2100 c0 -16 7 -20 30 -20 23 0 30 4 30 20 0 16 -7 20 -30 20
-23 0 -30 -4 -30 -20z"/>
<path d="M11370 2024 c0 -8 5 -12 10 -9 6 3 10 10 10 16 0 5 -4 9 -10 9 -5 0
-10 -7 -10 -16z"/>
<path d="M11421 2024 c0 -11 3 -14 6 -6 3 7 2 16 -1 19 -3 4 -6 -2 -5 -13z"/>
<path d="M11470 1980 c0 -5 5 -10 10 -10 6 0 10 5 10 10 0 6 -4 10 -10 10 -5
0 -10 -4 -10 -10z"/>
<path d="M8271 1771 c-113 -16 -129 -23 -112 -49 6 -11 21 -11 67 -3 32 5 89
12 127 16 62 6 67 8 67 31 0 28 8 27 -149 5z"/>
<path d="M7490 1735 c-16 -19 -6 -45 19 -45 23 0 36 -42 22 -69 -16 -29 -1
-61 36 -76 29 -12 33 -18 27 -40 -5 -20 -3 -25 14 -25 11 0 34 -3 51 -6 27 -6
31 -4 31 15 0 12 -6 24 -14 27 -12 4 -10 12 9 40 13 19 27 49 30 66 8 33 -1
44 -45 54 -46 10 -50 13 -50 32 0 33 -106 55 -130 27z"/>
<path d="M7228 1722 c-16 -9 -28 -20 -28 -24 0 -5 -8 -8 -19 -8 -14 0 -20 -10
-24 -41 -6 -44 -43 -93 -64 -85 -6 3 -15 -5 -19 -17 -12 -37 -6 -199 11 -267
8 -36 24 -103 34 -150 11 -47 29 -112 40 -144 25 -70 27 -112 6 -120 -9 -3
-111 -17 -228 -31 -117 -14 -222 -27 -234 -30 -33 -8 -29 -34 19 -105 l42 -62
46 6 c25 3 83 8 130 11 105 8 89 -7 -26 -25 -45 -6 -87 -15 -94 -20 -17 -10
-4 -47 20 -55 11 -3 94 3 185 15 238 30 218 38 271 -100 56 -144 74 -217 74
-302 0 -56 -4 -71 -25 -96 -14 -17 -25 -39 -25 -50 0 -20 5 -21 83 -18 95 3
155 28 178 73 29 55 61 103 70 103 5 0 9 12 9 26 0 34 22 54 60 54 27 0 30 -3
25 -20 -4 -11 -2 -20 4 -20 6 0 11 -9 11 -19 0 -11 7 -26 15 -35 8 -8 15 -19
15 -25 0 -21 24 -61 37 -61 7 0 13 -9 13 -20 0 -33 45 -25 85 15 19 18 30 37
25 40 -6 3 -10 22 -10 41 0 27 -4 34 -20 34 -17 0 -20 7 -20 40 0 22 -6 50
-12 61 -10 17 -10 23 0 26 20 8 13 31 -10 35 -13 2 -27 13 -33 25 -5 13 -13
23 -17 23 -5 0 -8 9 -8 20 0 13 -7 20 -20 20 -18 0 -20 7 -20 81 0 68 -2 80
-15 75 -8 -3 -32 1 -54 9 -21 7 -63 14 -93 16 -61 3 -78 12 -78 45 0 12 -4 25
-9 28 -5 4 -12 41 -16 84 -3 42 -10 85 -15 94 -6 10 -12 43 -15 75 -10 100
-15 120 -35 143 -25 29 -25 37 0 50 18 10 20 21 20 106 0 81 -3 99 -23 132
-13 20 -29 60 -36 87 -21 82 -30 99 -71 138 -28 28 -40 48 -42 74 -4 50 -33
68 -70 45z"/>
<path d="M2813 1665 c-7 -8 -13 -26 -13 -40 0 -23 4 -25 40 -25 l40 0 0 40 c0
37 -2 40 -27 40 -16 -1 -34 -7 -40 -15z m27 -15 c0 -5 -5 -10 -11 -10 -5 0 -7
5 -4 10 3 6 8 10 11 10 2 0 4 -4 4 -10z"/>
<path d="M8350 1670 c-25 -4 -71 -11 -103 -14 -56 -7 -82 -26 -61 -45 9 -9
250 21 260 32 4 3 4 13 1 22 -7 16 -25 17 -97 5z"/>
<path d="M7923 1610 c-20 -8 -30 -37 -24 -72 0 -4 -17 -11 -40 -14 -52 -9 -49
-32 9 -59 51 -24 62 -39 62 -86 0 -19 6 -42 13 -50 14 -18 127 -69 151 -69 10
0 15 -4 12 -8 -2 -4 -1 -14 5 -22 17 -29 9 60 -13 138 -25 91 -33 102 -65 102
-27 0 -39 21 -25 46 11 20 -4 77 -18 69 -5 -3 -11 4 -15 15 -7 22 -18 24 -52
10z"/>
<path d="M8390 1564 c-8 -1 -54 -8 -102 -14 -75 -10 -88 -15 -88 -30 0 -11 3
-21 8 -23 5 -3 227 25 260 32 1 1 2 10 2 21 0 16 -6 20 -32 19 -18 -1 -40 -3
-48 -5z"/>
<path d="M2653 1505 c-21 -23 -16 -65 7 -65 13 0 20 7 20 20 0 11 -5 20 -12
20 -9 0 -9 3 0 12 13 13 16 28 5 28 -5 -1 -14 -7 -20 -15z"/>
<path d="M2840 1450 c0 -5 6 -10 14 -10 8 0 18 5 21 10 3 6 -3 10 -14 10 -12
0 -21 -4 -21 -10z"/>
<path d="M8310 1365 c0 -17 -16 -20 -25 -5 -12 20 -22 10 -17 -17 4 -24 6 -25
12 -8 4 13 9 15 14 7 5 -9 11 -9 22 2 16 17 19 36 4 36 -5 0 -10 -7 -10 -15z"/>
<path d="M8400 1359 c0 -5 5 -7 11 -3 6 3 15 0 20 -7 7 -11 9 -10 9 4 0 10 -8
17 -20 17 -11 0 -20 -5 -20 -11z"/>
<path d="M8355 1340 c3 -5 8 -10 11 -10 2 0 4 5 4 10 0 6 -5 10 -11 10 -5 0
-7 -4 -4 -10z"/>
<path d="M8465 1340 c4 -6 11 -8 16 -5 14 9 11 15 -7 15 -8 0 -12 -5 -9 -10z"/>
<path d="M8121 1200 c0 -8 4 -24 9 -35 5 -13 9 -14 9 -5 0 8 -4 24 -9 35 -5
13 -9 14 -9 5z"/>
<path d="M8035 879 c-8 -37 -8 -37 36 -45 26 -4 30 -3 19 5 -13 10 -13 12 0
21 13 8 12 10 -3 10 -11 0 -21 9 -24 20 -8 29 -20 24 -28 -11z"/>
<path d="M7813 680 c-2 -30 1 -40 12 -40 8 0 15 -4 15 -10 0 -5 14 -10 30 -10
23 0 30 5 30 19 0 15 12 20 63 28 l62 9 -42 12 c-24 7 -43 17 -43 22 0 6 -28
10 -62 10 l-63 0 -2 -40z"/>
<path d="M4717 192 c-32 -33 -71 -106 -91 -169 l-7 -23 253 1 c139 1 242 4
228 6 -14 2 -34 8 -45 13 -11 5 -37 11 -57 15 -35 5 -42 13 -39 41 2 17 -69
84 -106 100 -18 8 -36 20 -40 27 -4 8 -20 17 -34 20 -21 5 -32 -1 -62 -31z"/>
</g>
</svg>
